<?xml version="1.0" encoding="UTF-8"?>
<svg width="256" height="256" viewBox="0 0 256 256" xmlns="http://www.w3.org/2000/svg" role="img" aria-labelledby="title">
  <title>RefEdge Symbol</title>
  <rect x="24" y="24" width="208" height="208" rx="28" fill="#1B365D"/>
  <!-- Whistle, rotated -45° about center (128,128) -->
  <g transform="rotate(-45 128 128)">
    <!-- Bulb/body -->
    <circle cx="98" cy="142" r="30" fill="#FFFFFF"/>
    <!-- Barrel -->
    <rect x="96" y="126" width="70" height="34" rx="17" fill="#FFFFFF"/>
    <!-- Slanted ramp from barrel to mouthpiece -->
    <path d="M166 126 L190 118 L214 124 L214 146 L166 146 Z" fill="#FFFFFF"/>
    <!-- Mouthpiece stub -->
    <rect x="206" y="128" width="22" height="18" rx="3" fill="#FFFFFF"/>
    <!-- Mouth opening (rectangular slit) -->
    <rect x="208" y="134" width="18" height="5" rx="2.5" fill="#1B365D"/>
    <!-- Chamber hole (pea) -->
    <circle cx="122" cy="140" r="12" fill="#1B365D"/>
    <!-- Back ring (larger, higher) -->
    <circle cx="74" cy="116" r="12.5" fill="none" stroke="#FF6B35" stroke-width="7.5"/>
    <!-- Connector to ring -->
    <rect x="82" y="121" width="16" height="6" rx="3" fill="#FFFFFF"/>
    <!-- Detail seams for recognition at small sizes -->
    <path d="M168 130 L210 140" stroke="#1B365D" stroke-width="3.8" stroke-linecap="round" opacity="0.75"/>
    <path d="M86 140 A14 14 0 0 1 110 122" stroke="#1B365D" stroke-width="3" fill="none" opacity="0.55"/>
  </g>
</svg>
